<svg xmlns="http://www.w3.org/2000/svg" viewBox="0 0 217.9 217.9"><title>module-phpmyadmin</title><rect width="217.9" height="217.9" style="fill:#3d5597"/><path d="M95.47,28.13h57.7V88.71H95.47Z" style="fill:#f5f5f6"/><ellipse cx="124.32" cy="88.71" rx="28.85" ry="10.1" style="fill:#f5f5f6"/><ellipse cx="124.32" cy="28.13" rx="28.85" ry="10.1" style="fill:#6a8fc5"/><ellipse cx="124.32" cy="27.55" rx="20.2" ry="5.19" style="fill:#f5f5f6;opacity:0.25;isolation:isolate"/><ellipse cx="94.74" cy="110.8" rx="28.85" ry="10.1" style="fill:#415597"/><path d="M65.89,50.21h57.7V110.8H65.89Z" style="fill:#415597"/><ellipse cx="94.74" cy="50.21" rx="28.85" ry="10.1" style="fill:#415597"/><ellipse cx="90.26" cy="114.39" rx="28.85" ry="10.1" style="fill:#f5f5f6"/><path d="M61.4,53.8h57.71v60.59H61.4Z" style="fill:#f5f5f6"/><ellipse cx="90.26" cy="53.8" rx="28.85" ry="10.1" style="fill:#6a8fc5"/><ellipse cx="90.26" cy="53.23" rx="20.2" ry="5.19" style="fill:#f5f5f6;opacity:0.25;isolation:isolate"/><path d="M160.66,195.71l-1.35-12.23H146.56l-3.45,12.23H132.39l16.42-52.5H164l7,52.5Zm-4.72-45.9L149,174.64h9.37Z" style="fill:#f5f5f6"/><path d="M118.59,195.71l3.9-44.92-8.85,27.29h-7.8l-4.35-27.29-3.9,44.92H88.44L93,143.21h15.38L111,163.39l6.3-20.18h15.15l-4.57,52.5Z" style="fill:#f5f5f6"/><path d="M49.89,208.46l4.35-50.25h8.1l.37,4.13a12.92,12.92,0,0,1,10.2-4.8c7,0,10.35,4.57,10.35,13.27,0,1.13-.07,3.23-.22,4.5-1.43,15.82-6.53,21.07-19.28,21.07-1,0-2,0-2.85-.07l-1,12.15Zm12.9-34.05-1.13,13.27c1.2.08,2.4.15,3.53.15,4.42,0,8-3.22,8-15.82,0-4.72-1.27-5.92-3.67-5.92C65.56,166.09,63.46,170.81,62.79,174.41Z" style="fill:#f5f5f6"/></svg>